HIERARCHY
ROOT Hips
{
	OFFSET 0.00000 0.00000 0.00000
	CHANNELS 6 Xposition Yposition Zposition Zrotation Yrotation Xrotation 
	JOINT LHipJoint
	{
		OFFSET 0 0 0
		CHANNELS 3 Zrotation Yrotation Xrotation
		JOINT LeftUpLeg
		{
			OFFSET 1.27966 -1.91611 0.81506
			CHANNELS 3 Zrotation Yrotation Xrotation
			JOINT LeftLeg
			{
				OFFSET 2.49511 -6.85528 0.00000
				CHANNELS 3 Zrotation Yrotation Xrotation
				JOINT LeftFoot
				{
					OFFSET 2.67286 -7.34045 0.00000
					CHANNELS 3 Zrotation Yrotation Xrotation
					JOINT LeftToeBase
					{
						OFFSET 0.22740 -0.62477 2.32102
						CHANNELS 3 Zrotation Yrotation Xrotation
						End Site
						{
							OFFSET 0.00000 -0.00000 1.20480
						}
					}
				}
			}
		}
	}
	JOINT RHipJoint
	{
		OFFSET 0 0 0
		CHANNELS 3 Zrotation Yrotation Xrotation
		JOINT RightUpLeg
		{
			OFFSET -1.09666 -1.91611 0.81505
			CHANNELS 3 Zrotation Yrotation Xrotation
			JOINT RightLeg
			{
				OFFSET -2.51373 -6.90642 0.00000
				CHANNELS 3 Zrotation Yrotation Xrotation
				JOINT RightFoot
				{
					OFFSET -2.70173 -7.42295 0.00000
					CHANNELS 3 Zrotation Yrotation Xrotation
					JOINT RightToeBase
					{
						OFFSET -0.22214 -0.61032 2.18267
						CHANNELS 3 Zrotation Yrotation Xrotation
						End Site
						{
							OFFSET -0.00000 -0.00000 1.13683
						}
					}
				}
			}
		}
	}
	JOINT LowerBack
	{
		OFFSET 0 0 0
		CHANNELS 3 Zrotation Yrotation Xrotation
		JOINT Spine
		{
			OFFSET -0.00990 2.16804 -0.08389
			CHANNELS 3 Zrotation Yrotation Xrotation
			JOINT Spine1
			{
				OFFSET 0.06407 2.15456 0.07285
				CHANNELS 3 Zrotation Yrotation Xrotation
				JOINT Neck
				{
					OFFSET 0 0 0
					CHANNELS 3 Zrotation Yrotation Xrotation
					JOINT Neck1
					{
						OFFSET -0.16931 1.61602 0.24462
						CHANNELS 3 Zrotation Yrotation Xrotation
						JOINT Head
						{
							OFFSET 0.21556 1.63376 -0.33896
							CHANNELS 3 Zrotation Yrotation Xrotation
							End Site
							{
								OFFSET 0.08444 1.69244 -0.14900
							}
						}
					}
				}
				JOINT LeftShoulder
				{
					OFFSET 0 0 0
					CHANNELS 3 Zrotation Yrotation Xrotation
					JOINT LeftArm
					{
						OFFSET 2.89000 1.40150 -0.54392
						CHANNELS 3 Zrotation Yrotation Xrotation
						JOINT LeftForeArm
						{
							OFFSET 5.10755 -0.00000 0.00000
							CHANNELS 3 Zrotation Yrotation Xrotation
							JOINT LeftHand
							{
								OFFSET 3.36253 -0.00000 0.00000
								CHANNELS 3 Zrotation Yrotation Xrotation
								JOINT LeftFingerBase
								{
									OFFSET 0 0 0
									CHANNELS 3 Zrotation Yrotation Xrotation
									JOINT LeftHandIndex1
									{
										OFFSET 0.61909 -0.00000 0.00000
										CHANNELS 3 Zrotation Yrotation Xrotation
										End Site
										{
											OFFSET 0.49912 -0.00000 0.00000
										}
									}
								}
								JOINT LThumb
								{
									OFFSET 0 0 0
									CHANNELS 3 Zrotation Yrotation Xrotation
									End Site
									{
										OFFSET 0.50675 -0.00000 0.50675
									}
								}
							}
						}
					}
				}
				JOINT RightShoulder
				{
					OFFSET 0 0 0
					CHANNELS 3 Zrotation Yrotation Xrotation
					JOINT RightArm
					{
						OFFSET -2.65771 1.70968 -0.54312
						CHANNELS 3 Zrotation Yrotation Xrotation
						JOINT RightForeArm
						{
							OFFSET -5.27387 -0.00000 0.00000
							CHANNELS 3 Zrotation Yrotation Xrotation
							JOINT RightHand
							{
								OFFSET -3.40144 -0.00000 0.00000
								CHANNELS 3 Zrotation Yrotation Xrotation
								JOINT RightFingerBase
								{
									OFFSET 0 0 0
									CHANNELS 3 Zrotation Yrotation Xrotation
									JOINT RightHandIndex1
									{
										OFFSET -0.74282 -0.00000 0.00000
										CHANNELS 3 Zrotation Yrotation Xrotation
										End Site
										{
											OFFSET -0.59888 -0.00000 0.00000
										}
									}
								}
								JOINT RThumb
								{
									OFFSET 0 0 0
									CHANNELS 3 Zrotation Yrotation Xrotation
									End Site
									{
										OFFSET -0.60803 -0.00000 0.60803
									}
								}
							}
						}
					}
				}
			}
		}
	}
}
MOTION
Frames: 8
Frame Time: .0083333
1.1485 18.1657 1.4489 0 0 0 0 0 0 -21 0 0 0 0 0 0 0 0 0 0 0 0 0 0 21 0 0 0 0 0 0 0 0 0 0 0 0 0 0 0 0 0 0 0 0 0 0 -16 0 0 21 0 0 11 0 0 0 -8 0 0 0 0 0 0 0 0 0 0 0 0 0 0 0 0 0 0 0 0 8 0 0 0 0 0 0 0 0 0 0 0 0 0 0 0 0 0
1.1485 18.1657 1.4489 -2.4093 1.7565 -3.4125 0.0000 0.0000 0.0000 -17.4294 3.3398 -1.7001 1.4279 7.5560 21.3733 0.4165 -7.3374 -11.8325 0.2281 -3.0740 -8.4847 0.0000 0.0000 0.0000 19.7094 2.6659 0.0284 -1.5295 -7.8084 22.1338 -0.4301 -4.5575 -14.9046 -0.6192 5.0360 -14.0112 -0.0236 0.6301 6.4697 3.1852 1.0183 -2.0568 3.2225 0.5677 -5.8385 -16.7148 -7.8077 -19.4930 13.6806 -9.5217 22.7985 6.3982 -4.1418 12.2878 0.0000 0.0000 0.0000 -73.6539 -28.9089 26.5507 76.2723 -59.2758 -48.1403 -0.0000 -0.0000 38.3229 59.0105 24.8862 35.0170 -7.1250 0.0000 -0.0000 45.4088 66.5829 25.7857 0.0000 0.0000 0.0000 49.3585 50.2186 34.7156 -68.3075 58.1451 -41.3308 0.0000 0.0000 41.0817 -53.9718 25.7822 -30.8811 7.1250 -0.0000 -0.0000 -13.7731 8.4185 -16.0793
1.1510 18.1680 1.4480 -2.3858 1.7789 -3.3604 0.0000 0.0000 0.0000 -17.4737 3.3550 -1.7311 1.4224 7.5421 21.3316 0.4174 -7.2587 -11.8267 0.2331 -3.1073 -8.5775 0.0000 0.0000 0.0000 19.6548 2.6449 -0.0688 -1.5385 -7.8303 22.1998 -0.4376 -4.4609 -14.9349 -0.6104 5.0007 -13.9107 -0.0434 0.6048 6.5191 3.2030 0.9894 -2.2210 3.2569 0.5574 -6.0390 -16.6985 -7.7652 -19.2102 13.5630 -9.4903 22.8898 6.3607 -4.1514 12.2525 0.0000 0.0000 0.0000 -73.7913 -28.6842 26.5983 76.4009 -59.2895 -48.2509 -0.0000 -0.0000 38.4189 59.4686 25.1117 35.7373 -7.1250 0.0000 -0.0000 46.8218 66.9711 27.1281 0.0000 0.0000 0.0000 48.2948 51.2767 33.9052 -67.8764 58.0673 -40.9647 0.0000 0.0000 41.0945 -54.3815 25.7190 -31.2046 7.1250 -0.0000 -0.0000 -14.0116 8.5788 -16.4071
1.1559 18.1710 1.4469 -2.2421 1.7353 -3.3005 0.0000 0.0000 0.0000 -17.6796 3.3589 -1.7507 1.4109 7.5128 21.2437 0.4187 -7.0837 -11.8078 0.2426 -3.1697 -8.7516 0.0000 0.0000 0.0000 19.4358 2.6313 -0.1282 -1.5373 -7.8273 22.1906 -0.4478 -4.2398 -14.9112 -0.5873 4.9068 -13.6429 -0.1649 0.6448 6.4635 3.1617 1.0306 -2.2858 3.2779 0.5824 -6.0794 -16.6331 -7.7360 -19.0619 13.5650 -9.4977 22.9110 6.3517 -4.1544 12.2286 -0.0000 0.0000 0.0000 -73.9299 -28.6407 26.7103 76.3824 -59.2876 -48.2351 -0.0000 -0.0000 38.5935 59.8582 25.1996 36.2512 -7.1250 0.0000 -0.0000 47.9067 67.1798 28.0882 -0.0000 0.0000 0.0000 46.6762 52.6176 32.2905 -67.3005 57.9606 -40.4762 0.0000 0.0000 41.6319 -54.0480 25.4766 -30.6715 7.1250 -0.0000 -0.0000 -13.9045 8.0754 -16.1709
1.1653 18.1726 1.4434 -1.9920 1.6729 -3.2371 0.0000 0.0000 0.0000 -18.0462 3.2930 -1.7843 1.4075 7.5041 21.2177 0.4254 -6.8929 -11.8561 0.2500 -3.2173 -8.8842 0.0000 0.0000 0.0000 19.0391 2.5364 -0.2381 -1.5341 -7.8195 22.1673 -0.4554 -3.9211 -14.7918 -0.5686 4.8294 -13.4227 -0.3291 0.6555 6.5591 3.0918 1.0324 -2.4595 3.2980 0.5918 -6.3194 -16.6227 -7.6451 -18.7075 13.5750 -9.4377 22.9534 6.3714 -4.1394 12.1626 0.0000 -0.0000 0.0000 -74.0280 -28.4043 26.7237 76.3449 -59.2836 -48.2028 -0.0000 -0.0000 38.6755 60.2017 25.2259 36.6573 -7.1250 0.0000 -0.0000 48.8052 67.3044 28.8450 0.0000 -0.0000 0.0000 45.1047 53.8024 30.8318 -66.8429 57.8735 -40.0885 0.0000 0.0000 41.7383 -53.0962 25.6789 -29.9874 7.1250 -0.0000 -0.0000 -13.3325 7.7871 -15.4121
1.1745 18.1731 1.4426 -1.8891 1.6747 -3.1640 0.0000 0.0000 0.0000 -18.2264 3.2576 -1.8512 1.4081 7.5057 21.2225 0.4299 -6.8210 -11.8993 0.2643 -3.3076 -9.1362 0.0000 0.0000 0.0000 18.8224 2.3610 -0.3339 -1.5227 -7.7918 22.0836 -0.4523 -3.7342 -14.6253 -0.5641 4.8107 -13.3694 -0.3326 0.6427 6.6606 3.0483 1.0202 -2.7056 3.2572 0.5898 -6.6370 -16.6398 -7.5702 -18.1299 13.5901 -9.4308 22.9837 6.3901 -4.1585 12.0590 -0.0000 -0.0000 0.0000 -74.0936 -28.0532 26.7929 76.2771 -59.2763 -48.1445 -0.0000 -0.0000 38.7077 60.7574 25.4171 37.4749 -7.1250 0.0000 -0.0000 50.5326 67.6621 30.4517 -0.0000 -0.0000 0.0000 43.7056 54.3527 29.7001 -66.2878 57.7650 -39.6187 0.0000 0.0000 40.6817 -53.1128 26.1069 -30.3857 7.1250 -0.0000 -0.0000 -13.2156 8.3342 -15.3773
1.1771 18.1728 1.4436 -1.9804 1.8260 -3.1439 0.0000 0.0000 0.0000 -18.1176 3.3520 -1.9563 1.4107 7.5123 21.2424 0.4245 -7.0117 -11.8670 0.2913 -3.4706 -9.5919 0.0000 0.0000 0.0000 18.8959 2.2417 -0.3175 -1.5096 -7.7596 21.9863 -0.4477 -3.7528 -14.5763 -0.5484 4.7444 -13.1809 -0.2347 0.5632 6.7488 3.1025 0.9344 -2.9448 3.2719 0.5494 -6.9364 -16.7841 -7.4454 -17.4569 13.7254 -9.3564 22.9519 6.4901 -4.1484 11.9140 -0.0000 -0.0000 0.0000 -74.2550 -27.6619 26.8319 76.3297 -59.2820 -48.1898 -0.0000 -0.0000 38.7645 61.5905 25.6058 38.6241 -7.1250 0.0000 -0.0000 53.0725 68.0726 32.7593 -0.0000 -0.0000 0.0000 42.5913 55.0684 28.6958 -65.3806 57.5811 -38.8521 0.0000 0.0000 40.1096 -53.8705 26.1762 -31.1442 7.1250 -0.0000 -0.0000 -13.6016 8.8562 -15.9552
1.1770 18.1739 1.4404 -2.0794 1.9969 -3.1126 0.0000 0.0000 0.0000 -17.9927 3.3716 -2.0883 1.4158 7.5252 21.2810 0.4116 -7.1589 -11.7344 0.2870 -3.4452 -9.5207 0.0000 0.0000 0.0000 19.0017 2.2532 -0.3462 -1.4980 -7.7312 21.9005 -0.4389 -3.8727 -14.5383 -0.5465 4.7363 -13.1579 -0.0557 0.5784 6.8361 3.0578 0.9674 -2.8318 3.1180 0.5548 -6.8641 -16.6738 -7.6163 -18.1813 13.8130 -9.5594 23.1250 6.4691 -4.1934 12.1640 0.0000 0.0000 0.0000 -74.2959 -28.1425 26.9399 76.3472 -59.2838 -48.2047 -0.0000 -0.0000 38.7212 62.2560 25.6850 39.4889 -7.1250 0.0000 -0.0000 55.0581 68.3093 34.5223 0.0000 0.0000 0.0000 40.7633 56.5112 26.1174 -64.2486 57.3397 -37.8978 0.0000 0.0000 40.6314 -55.1418 26.0745 -32.2539 7.1250 -0.0000 -0.0000 -14.3114 9.4865 -16.9679
